<svg width="21" height="24" viewBox="0 0 21 24" fill="none" xmlns="http://www.w3.org/2000/svg">
<path fill-rule="evenodd" clip-rule="evenodd" d="M20.2293 16.962L19.3711 9.8381C18.8482 7.2961 17.3684 6.25002 15.9576 6.25002H4.62223C3.19174 6.25002 1.6626 7.22288 1.21866 9.8381L0.3505 16.962C-0.359811 22.1924 2.25453 23.5 5.66797 23.5H14.9217C18.3253 23.5 20.8607 21.6066 20.2293 16.962ZM7.03912 12.1709C6.49427 12.1709 6.05258 11.7025 6.05258 11.1248C6.05258 10.547 6.49427 10.0787 7.03912 10.0787C7.58397 10.0787 8.02566 10.547 8.02566 11.1248C8.02566 11.7025 7.58397 12.1709 7.03912 12.1709ZM12.5144 11.1248C12.5144 11.7025 12.9561 12.1709 13.5009 12.1709C14.0458 12.1709 14.4875 11.7025 14.4875 11.1248C14.4875 10.547 14.0458 10.0787 13.5009 10.0787C12.9561 10.0787 12.5144 10.547 12.5144 11.1248Z" fill="white"/>
<path opacity="0.4" d="M15.9906 5.99049C15.9942 6.07969 15.9771 6.16851 15.9406 6.25002H14.2906C14.2587 6.16715 14.2417 6.07927 14.2406 5.99049C14.2406 3.78536 12.4497 1.99776 10.2405 1.99776C8.03135 1.99776 6.24045 3.78536 6.24045 5.99049C6.25559 6.07634 6.25559 6.16417 6.24045 6.25002H4.55042C4.53528 6.16417 4.53528 6.07634 4.55042 5.99049C4.67882 2.92181 7.20852 0.500015 10.2855 0.500015C13.3625 0.500015 15.8922 2.92181 16.0206 5.99049H15.9906Z" fill="white"/>
</svg>
